{
   "accessors" : [
      {
         "bufferView" : 0,
         "byteOffset" : 0,
         "componentType" : 5123,
         "count" : 100851,
         "max" : [ 65535 ],
         "min" : [ 0 ],
         "name" : "buffer-0-group-0-mesh-0-indices",
         "type" : "SCALAR"
      },
      {
         "bufferView" : 1,
         "byteOffset" : 0,
         "componentType" : 5126,
         "count" : 65536,
         "max" : [ 15.69972705841064, 33.22064590454102, 25.01926612854004 ],
         "min" : [ -39.09170150756836, -31.71594619750977, -24.60725784301758 ],
         "name" : "buffer-0-group-0-mesh-0-position",
         "type" : "VEC3"
      },
      {
         "bufferView" : 1,
         "byteOffset" : 786432,
         "componentType" : 5126,
         "count" : 65536,
         "max" : [ 1, 0.9999848008155823, 1 ],
         "min" : [ -1, -0.9999730587005615, -1 ],
         "name" : "buffer-0-group-0-mesh-0-normal",
         "type" : "VEC3"
      },
      {
         "bufferView" : 2,
         "byteOffset" : 0,
         "componentType" : 5126,
         "count" : 65536,
         "max" : [ 1, 0 ],
         "min" : [ 0, -1 ],
         "name" : "buffer-0-group-0-mesh-0-texcoord",
         "type" : "VEC2"
      },
      {
         "bufferView" : 0,
         "byteOffset" : 201702,
         "componentType" : 5123,
         "count" : 352203,
         "max" : [ 65533 ],
         "min" : [ 0 ],
         "name" : "buffer-0-group-0-mesh-1-indices",
         "type" : "SCALAR"
      },
      {
         "bufferView" : 1,
         "byteOffset" : 1572864,
         "componentType" : 5126,
         "count" : 65534,
         "max" : [ 24.45438575744629, 40.09663772583008, 25.04653358459473 ],
         "min" : [ -41.84904861450195, -31.93501091003418, -24.63457679748535 ],
         "name" : "buffer-0-group-0-mesh-1-position",
         "type" : "VEC3"
      },
      {
         "bufferView" : 1,
         "byteOffset" : 2359272,
         "componentType" : 5126,
         "count" : 65534,
         "max" : [ 1, 1, 1 ],
         "min" : [ -1, -1, -1 ],
         "name" : "buffer-0-group-0-mesh-1-normal",
         "type" : "VEC3"
      },
      {
         "bufferView" : 2,
         "byteOffset" : 524288,
         "componentType" : 5126,
         "count" : 65534,
         "max" : [ 1, 0 ],
         "min" : [ 0, -1 ],
         "name" : "buffer-0-group-0-mesh-1-texcoord",
         "type" : "VEC2"
      },
      {
         "bufferView" : 0,
         "byteOffset" : 906108,
         "componentType" : 5123,
         "count" : 105522,
         "max" : [ 41036 ],
         "min" : [ 0 ],
         "name" : "buffer-0-group-0-mesh-2-indices",
         "type" : "SCALAR"
      },
      {
         "bufferView" : 1,
         "byteOffset" : 3145680,
         "componentType" : 5126,
         "count" : 41037,
         "max" : [ 20.32336807250977, 42.23819732666016, 28.81097984313965 ],
         "min" : [ -45.24081802368164, -31.93501091003418, -29.27731895446777 ],
         "name" : "buffer-0-group-0-mesh-2-position",
         "type" : "VEC3"
      },
      {
         "bufferView" : 1,
         "byteOffset" : 3638124,
         "componentType" : 5126,
         "count" : 41037,
         "max" : [ 0.9993605017662048, 0.9995661973953247, 1 ],
         "min" : [ -0.9992794990539551, -0.9993375539779663, -1 ],
         "name" : "buffer-0-group-0-mesh-2-normal",
         "type" : "VEC3"
      },
      {
         "bufferView" : 2,
         "byteOffset" : 1048560,
         "componentType" : 5126,
         "count" : 41037,
         "max" : [ 1, 0 ],
         "min" : [ 0, -1 ],
         "name" : "buffer-0-group-0-mesh-2-texcoord",
         "type" : "VEC2"
      }
   ],
   "asset" : {
      "generator" : "Obj2GltfConverter",
      "version" : "2.0"
   },
   "bufferViews" : [
      {
         "buffer" : 0,
         "byteLength" : 1117152,
         "byteOffset" : 0,
         "name" : "buffer-0-bufferview-ushort",
         "target" : 34963
      },
      {
         "buffer" : 0,
         "byteLength" : 4130568,
         "byteOffset" : 1117152,
         "byteStride" : 12,
         "name" : "buffer-0-bufferview-vec3",
         "target" : 34962
      },
      {
         "buffer" : 0,
         "byteLength" : 1376856,
         "byteOffset" : 5247720,
         "byteStride" : 8,
         "name" : "buffer-0-bufferview-vec2",
         "target" : 34962
      }
   ],
   "buffers" : [
      {
         "byteLength" : 6624576,
         "name" : "buffer-0",
         "uri" : "poltrona.bin"
      }
   ],
   "cameras" : [
      {
         "perspective" : {
            "yfov" : 0.7853981633974483,
            "znear" : 0.1000000014901161
         },
         "type" : "perspective"
      }
   ],
   "extensions" : {
      "GOOGLE_lights_image_based" : {
         "lights" : [
            {
               "intensity" : 1,
               "pmremTexture" : {
                  "index" : 0
               },
               "rotation" : 0
            }
         ]
      },
      "KHR_lights_punctual" : {
         "lights" : [
            {
               "color" : [ 1, 0.9333333333333333, 0.8666666666666667 ],
               "intensity" : 0.25,
               "name" : "headLight",
               "type" : "directional"
            },
            {
               "color" : [ 1, 0.9333333333333333, 0.8666666666666667 ],
               "intensity" : 0.324999988079071,
               "name" : "keyLight",
               "type" : "directional"
            }
         ]
      }
   },
   "extensionsUsed" : [
      "GOOGLE_backgrounds",
      "GOOGLE_lights_image_based",
      "GOOGLE_camera_settings",
      "KHR_lights_punctual"
   ],
   "extras" : {
      "GOOGLE_initial_camera_motion" : {
         "motionPath" : "FULL_ROTATION"
      },
      "GOOGLE_lighting_rig" : {
         "disableShadows" : false
      }
   },
   "images" : [
      {
         "uri" : "poly_pmrem_cubeuv_studio.jpg"
      }
   ],
   "materials" : [
      {
         "alphaCutoff" : 0.5,
         "alphaMode" : "OPAQUE",
         "doubleSided" : true,
         "emissiveFactor" : [ 0, 0, 0 ],
         "name" : "__default",
         "pbrMetallicRoughness" : {
            "baseColorFactor" : [ 0.6000000238418579, 0.6000000238418579, 0.6000000238418579, 1 ],
            "metallicFactor" : 1,
            "roughnessFactor" : 0.1599999964237213
         }
      }
   ],
   "meshes" : [
      {
         "name" : "buffer-0-mesh-0",
         "primitives" : [
            {
               "attributes" : {
                  "NORMAL" : 2,
                  "POSITION" : 1,
                  "TEXCOORD_0" : 3
               },
               "indices" : 0,
               "material" : 0,
               "mode" : 4
            },
            {
               "attributes" : {
                  "NORMAL" : 6,
                  "POSITION" : 5,
                  "TEXCOORD_0" : 7
               },
               "indices" : 4,
               "material" : 0,
               "mode" : 4
            },
            {
               "attributes" : {
                  "NORMAL" : 10,
                  "POSITION" : 9,
                  "TEXCOORD_0" : 11
               },
               "indices" : 8,
               "material" : 0,
               "mode" : 4
            }
         ]
      }
   ],
   "nodes" : [
      {
         "mesh" : 0,
         "name" : "node-0"
      },
      {
         "children" : [ 2 ]
      },
      {
         "children" : [ 3 ],
         "extras" : {
            "isTransformNode" : 1
         },
         "rotation" : [ 0, 0, 0, 0 ],
         "translation" : [ -9.753975551117136, 9.06326703332898, 0.4171811735331784 ]
      },
      {
         "children" : [ 0 ],
         "translation" : [ 9.753975551117136, -9.06326703332898, -0.4171811735331784 ]
      },
      {
         "camera" : 0,
         "children" : [ 5 ],
         "rotation" : [
            -0.03531298690834064,
            0.4675561088190855,
            0.0186972636536372,
            0.8830598453068926
         ],
         "translation" : [ 107.3111441807573, 20.39861325432435, 79.97572089664833 ]
      },
      {
         "extensions" : {
            "KHR_lights_punctual" : {
               "light" : 0
            }
         },
         "extras" : {
            "isHeadLight" : 1
         },
         "name" : "headLightNode",
         "translation" : [ -59.14311906347502, 29.57155953173751, 29.57155953173751 ]
      },
      {
         "extensions" : {
            "KHR_lights_punctual" : {
               "light" : 1
            }
         },
         "extras" : {
            "isKeyLight" : 1
         },
         "name" : "keyLightNode",
         "rotation" : [ -0.7505326882858236, -0.3752663441429118, 0, 0.5439447166468927 ],
         "scale" : [ 0, 0, 59.73455025410977 ],
         "translation" : [ -67.93160693279528, 127.2849303260706, -59.23941092102302 ]
      }
   ],
   "scene" : 0,
   "scenes" : [
      {
         "extensions" : {
            "GOOGLE_backgrounds" : {
               "color" : [ 1, 1, 1 ]
            },
            "GOOGLE_camera_settings" : {
               "mode" : "movableOrbit",
               "pivot" : [ -9.759270186686948, 9.059771085042534, 0.414745927163338 ]
            },
            "GOOGLE_lights_image_based" : {
               "light" : 0
            }
         },
         "extras" : {
            "GOOGLE_camera_index" : {
               "cameraIndex" : 0,
               "nodeIndex" : 4
            },
            "GOOGLE_geometry_data" : {
               "stats" : {
                  "centroid" : [ -8.197056678685511, 7.815829817851077, 0.4951393330867502 ],
                  "radius" : 59.14311906347502,
                  "stdev" : 24.83736236853192
               },
               "visualCenterPoint" : [ -9.753975551117136, 9.06326703332898, 0.4171811735331784 ]
            }
         },
         "name" : "scene-0",
         "nodes" : [ 1, 4, 6 ]
      }
   ]
}
